<?xml version="1.0" encoding="UTF-8" standalone="no"?>
<!DOCTYPE svg PUBLIC "-//W3C//DTD SVG 1.1//EN" "http://www.w3.org/Graphics/SVG/1.1/DTD/svg11.dtd">
<svg width="100%" height="100%" viewBox="0 0 1280 1280" version="1.1" xmlns="http://www.w3.org/2000/svg" xmlns:xlink="http://www.w3.org/1999/xlink" xml:space="preserve" xmlns:serif="http://www.serif.com/" style="fill-rule:evenodd;clip-rule:evenodd;stroke-linejoin:round;stroke-miterlimit:2;">
    <ellipse id="Background" cx="639.918" cy="606.627" rx="611.118" ry="606.627"/>
    <g id="Bones">
        <g transform="matrix(1,0,0,1,413.6,594.4)">
            <path d="M28.8,0C33.488,4.088 36.744,9.44 40.16,14.56C63.76,50.48 98.8,67.44 136.16,86C136.824,86.331 137.488,86.662 138.176,87C144.368,90.088 150.576,93.168 156.736,96.28C160.168,97.984 163.6,99.696 167.056,101.408C168.336,102.046 169.616,102.68 170.896,103.32C178.896,107.288 186.736,111.48 194.576,115.8C198.944,118.256 203.376,120.576 207.856,122.872C208.638,123.278 209.416,123.688 210.224,124.104C216.968,127.6 223.744,131 230.544,134.344C231.082,134.611 231.624,134.878 232.176,135.152C247.696,142.832 263.216,150.192 279.136,156.912C283.024,158.56 286.896,160.224 290.736,161.888C303.616,167.432 316.576,173.008 329.536,178.448C334.056,180.352 338.576,182.288 343.056,184.256C363.536,193.216 383.536,200.016 405.616,203.856C406.322,203.978 407.032,204.1 407.752,204.225C424.392,207.041 440.392,207.801 457.032,204.55C472.632,201.79 495.112,205.638 508.792,213.83C511.6,215.998 513.56,218.518 515.328,221.574C515.627,222.048 515.926,222.526 516.232,223.014C518.472,228.71 517.424,237.174 515.408,242.854C512.304,249.614 508.016,256.694 501.008,259.894C494.896,261.614 488.048,260.934 481.728,260.798C481.258,262.286 481.258,262.286 480.776,263.798C476.552,276.278 470.456,287.638 458.296,293.958C449.016,298.31 437.016,296.662 427.656,293.395C412.536,287.619 399.016,278.355 387.336,267.235C379.632,260.171 371.176,253.875 362.536,248.035C361.712,247.478 360.88,246.923 360.032,246.347C342.352,234.587 322.752,227.227 302.912,219.707C288.352,214.203 274.912,207.387 261.392,199.547C252.272,194.339 242.912,189.947 233.392,185.627C227.92,183.115 222.512,180.467 217.152,177.739C213.048,175.659 208.912,173.611 204.832,171.563C203.128,170.715 201.424,169.859 199.728,169.011C198.872,168.586 198.024,168.163 197.144,167.723C195.392,166.843 193.648,165.963 191.896,165.075C184.968,161.563 177.976,158.331 170.856,155.155C169,154.331 167.144,153.507 165.288,152.683C154.648,147.939 143.848,143.483 132.808,139.723C131.872,139.398 130.928,139.074 129.96,138.739C117.64,134.523 105.08,130.779 92.6,126.979C84.36,124.475 76.12,121.931 67.96,119.171C63.784,117.763 59.56,116.483 55.32,115.315C50.664,114.011 46.04,112.691 41.4,111.283C22.12,105.451 2.44,99.603 -17.64,97.203C-29.56,95.635 -41.32,93.755 -49.56,84.003L-51.208,82.307C-54.84,76.923 -57.08,70.467 -55.96,63.987C-53.28,53.347 -48.76,43.507 -39.48,37.107C-31.4,32.355 -21.88,32.059 -12.76,31.203C-11.64,27.107 -10.984,23.467 -10.856,19.203C-10.55,14.595 -10.21,10.803 -7.16,7.203C1.72,-0.541 17.72,-5.357 28.84,0.003L28.8,0Z" style="fill:rgb(252,253,255);fill-rule:nonzero;"/>
        </g>
        <g transform="matrix(1,0,0,1,869.6,591.2)">
            <path d="M28.8,0C30.096,1.808 31.16,3.464 32.2,5.4C32.47,5.866 32.74,6.336 33.016,6.816C37.44,14.752 36.904,22.256 36.456,31.136C36.293,37.752 37.416,42.016 41.6,47.216C42.632,48.288 43.68,49.336 44.752,50.368C49.904,55.336 53.872,60.288 54.192,67.648C53.732,75.12 50.52,80.688 45.072,85.728C31.712,96.128 12.112,96.688 -4.048,97.568C-26.448,98.888 -44.928,102.936 -65.168,112.528C-69.64,114.632 -74.128,116.56 -78.768,118.272C-94.848,124.2 -110.288,131.232 -125.728,138.592C-131.936,141.536 -138.208,144.376 -144.448,147.152C-146.72,148.16 -148.984,149.184 -151.248,150.208C-152.904,150.948 -154.56,151.688 -156.216,152.424C-156.979,152.771 -157.744,153.119 -158.528,153.48C-168.288,157.8 -168.288,157.8 -173.168,156.184C-175.336,155.232 -177.432,154.184 -179.528,153.08C-180.952,152.358 -182.376,151.64 -183.8,150.92C-184.506,150.563 -185.208,150.206 -185.936,149.84C-188.552,148.576 -191.232,147.536 -193.936,146.48C-197.968,144.832 -201.864,142.888 -205.776,140.976C-207.536,140.128 -209.296,139.272 -211.056,138.424C-211.904,138.014 -212.752,137.608 -213.624,137.184C-218.4,134.888 -223.224,132.648 -228.024,130.432L-228.024,128.032C-220.448,124.48 -212.824,121.12 -205.144,117.792C-204.555,117.54 -203.968,117.288 -203.36,117.028C-193.68,112.884 -184,108.788 -174.24,104.788C-161.44,99.46 -148.8,94.068 -136.16,88.388C-133.432,87.164 -130.704,85.956 -128,84.756C-118.88,80.748 -109.84,76.676 -101.04,72.116C-98.92,71.036 -96.792,69.996 -94.656,68.948C-82.336,62.884 -70.656,56.868 -60.096,47.988C-58.264,46.572 -56.424,45.172 -54.584,43.78C-44.664,35.54 -36.904,24.9 -30.184,14.02C-23.96,3.94 -17.144,-3.02 -5.464,-5.9C6.296,-8.46 18.936,-7.54 28.696,0.02L28.8,0Z" style="fill:rgb(252,253,255);fill-rule:nonzero;"/>
        </g>
        <g transform="matrix(1,0,0,1,546.4,751.2)">
            <path d="M28.8,0C30.464,0.707 32.08,1.48 33.696,2.296C34.302,2.588 34.904,2.879 35.528,3.176C37.496,4.128 39.448,5.088 41.408,6.056C43.448,7.048 45.488,8.04 47.528,9.024C48.896,9.689 50.272,10.352 51.64,11.024C55.92,13.104 60.2,15.104 64.6,17.032C65.39,17.386 65.39,17.386 66.2,17.746C68.648,18.842 71.096,19.922 73.56,20.978C74.84,21.553 74.84,21.553 76.144,22.138C77.256,22.623 77.256,22.623 78.392,23.114C80.056,24.298 80.056,24.298 80.704,26.426C80.781,27.346 80.781,27.346 80.86,28.29C80.447,28.446 80.036,28.602 79.612,28.763C69.052,32.739 58.652,36.843 48.172,41.003C35.052,46.227 21.932,51.403 8.732,56.443C8.085,56.692 7.436,56.942 6.772,57.198C0.98,59.422 -4.828,61.646 -10.668,63.774C-33.228,72.014 -51.548,85.534 -70.028,100.734C-88.508,115.934 -107.068,128.494 -131.948,127.374C-139.748,126.518 -145.948,123.774 -151.228,117.854C-154.052,114.054 -156.34,109.974 -158.58,105.774C-163.708,96.254 -167.94,92.094 -177.62,87.374C-181.884,85.31 -185.78,82.998 -189.62,80.198C-190.33,79.752 -191.036,79.31 -191.772,78.846C-196.852,73.766 -199.284,67.246 -199.572,60.206C-199.513,53.702 -197.364,48.446 -193.108,43.486C-191.74,42.238 -190.372,41.222 -188.82,40.214C-188.277,39.854 -187.732,39.496 -187.172,39.126C-175.092,31.79 -161.012,32.662 -147.412,33.542C-145.612,33.651 -143.82,33.761 -142.02,33.87C-139.236,34.042 -136.46,34.215 -133.7,34.391C-118.18,35.367 -103.06,35.975 -87.54,34.467C-86.998,34.415 -86.46,34.363 -85.9,34.309C-52.94,31.093 -23.74,18.949 6.1,5.829C7.5,5.222 8.892,4.613 10.292,4.005C23.332,-1.675 23.332,-1.675 28.452,-0.083L28.8,0Z" style="fill:rgb(252,253,255);fill-rule:nonzero;"/>
        </g>
        <g transform="matrix(1,0,0,1,749.6,815.2)">
            <path d="M28.8,0C36.784,2.16 43.84,7.216 50.64,11.84C51.368,12.33 52.096,12.824 52.848,13.328C54.968,14.76 57.08,16.2 59.192,17.64C60.024,18.21 60.024,18.21 60.88,18.792C66.472,22.632 71.76,26.704 76.88,31.112C80.048,33.832 83.32,36.368 86.72,38.808C87.167,39.135 87.616,39.463 88.072,39.8C92.216,42.744 96.392,45.392 101.592,44.656C102.27,44.563 102.952,44.47 103.648,44.374C106.224,43.885 108.68,43.158 111.192,42.406L114.392,42.406C115.092,44.958 115.092,44.958 115.192,48.006C111.736,51.894 108.128,53.294 102.872,53.782C90.312,54.248 80.952,46.262 71.992,38.422C70.536,37.062 69.088,35.694 67.64,34.326C59.84,27.014 51,20.886 42.28,14.726C41.63,14.261 40.984,13.798 40.312,13.318C39.088,12.446 37.864,11.574 36.632,10.71C33.456,8.446 30.544,6.222 27.992,3.27C28.142,1.422 28.142,1.422 28.792,0.07L28.8,0Z" style="fill:rgb(7,5,13);fill-rule:nonzero;"/>
        </g>
        <g transform="matrix(1,0,0,1,387.2,660.8)">
            <path d="M28.8,0C31.328,0.062 33.056,0.329 35,2.016C35.912,2.984 36.808,3.968 37.68,4.968C40.864,7.96 44.88,9.168 49.04,10.296C50.008,10.568 50.968,10.84 51.968,11.12C52.729,11.334 52.729,11.334 53.504,11.551C63.104,14.271 72.224,17.583 81.264,21.791C87.144,24.487 92.864,26.591 99.184,27.999C99.58,29.983 99.58,29.983 99.984,31.999C95.744,32.17 92.072,31.621 87.984,30.447C87.37,30.275 86.752,30.102 86.12,29.926C80.896,28.398 75.88,26.438 70.84,24.398C61.72,20.702 52.52,18.142 42.84,15.998C30.28,13.166 30.28,13.166 26.36,8.782C25.685,5.518 25.818,4.062 27.56,1.23C27.956,0.817 28.352,0.406 28.76,-0.018L28.8,0Z" style="fill:rgb(7,5,13);fill-rule:nonzero;"/>
        </g>
        <g transform="matrix(1,0,0,1,380,824.8)">
            <path d="M28.8,0L32,0C33.152,2.168 34.304,4.336 35.448,6.496C35.771,7.105 36.094,7.712 36.424,8.336C36.9,9.232 36.9,9.232 37.384,10.152C37.698,10.741 38.012,11.328 38.336,11.936C39.065,13.344 39.728,14.792 40.376,16.24C41.824,18.816 43.056,20.072 45.592,21.6C48.32,22.045 48.32,22.045 51.192,21.9C52.152,21.89 53.104,21.879 54.088,21.869C56.656,21.613 58.44,21.013 60.792,19.997C62.64,20.297 62.64,20.297 63.992,20.797C63.749,23.373 63.488,24.517 61.592,26.325C54.408,31.133 48.152,34.325 39.192,32.797C32.368,28.485 31.032,19.917 29.352,12.477C28.464,8.541 27.728,4.845 28,0.797C28.264,0.533 28.528,0.269 28.8,-0.003L28.8,0Z" style="fill:rgb(7,5,13);fill-rule:nonzero;"/>
        </g>
        <g transform="matrix(1,0,0,1,844.8,651.2)">
            <path d="M28.8,0L31.2,0C34.008,4.336 34.392,8.56 33.6,13.6C30.752,17.528 25.36,18.192 20.8,19.2C17.232,19.734 13.648,20.136 10.08,20.52C-1.44,21.768 -12.56,23.536 -23.44,27.712C-26.056,28.672 -27.656,29.056 -30.392,28.8L-30.392,26.4C-16.552,18.544 -1.432,15.6 14.008,12.8C15.536,12.52 15.536,12.52 17.096,12.234C18.456,11.991 18.456,11.991 19.848,11.743C22.384,11.202 24.76,10.463 27.2,9.599C27.248,8.974 27.297,8.351 27.347,7.703C27.448,6.487 27.448,6.487 27.55,5.247C27.648,4.039 27.648,4.039 27.747,2.799C28,0.799 28,0.799 28.803,-0.001L28.8,0Z" style="fill:rgb(7,5,13);fill-rule:nonzero;"/>
        </g>
        <g transform="matrix(1,0,0,1,863.2,822.4)">
            <path d="M28.8,0C30.312,0.531 30.312,0.531 32.712,2.032C33.56,4.48 33.56,4.48 33.512,6.832C31.912,8.432 31.912,8.432 30.432,8.584C25.104,8.133 21.712,6.072 17.472,2.832C17.736,2.04 18,1.248 18.272,0.432C21.448,-1.152 25.36,-0.744 28.752,0.001L28.8,0Z" style="fill:rgb(7,5,13);fill-rule:nonzero;"/>
        </g>
        <g transform="matrix(1,0,0,1,368,800)">
            <path d="M28.8,0C29.064,1.584 29.328,3.168 29.6,4.8C21.656,8.752 21.656,8.752 17.6,8C15.696,6.4 15.696,6.4 14.4,4.8C15.552,2.496 16.344,1.064 18.6,-0.248C22.176,-1.144 25.304,-1.16 28.84,0.002L28.8,0Z" style="fill:rgb(7,5,13);fill-rule:nonzero;"/>
        </g>
    </g>
    <g id="Head">
        <g transform="matrix(1,0,0,1,682.4,314.4)">
            <path d="M28.8,0C33.592,1.672 36.96,4.8 40.8,8C41.534,8.555 41.534,8.555 42.28,9.12C55.24,19.28 70.84,42.88 73.16,59.36C73.494,68.96 70.68,77.92 66.408,86.4C65.651,92.456 67.576,96 71.208,100.8C73.888,103.96 76.744,106.952 79.608,109.92C81.408,111.808 83.16,113.744 84.904,115.68C85.467,116.301 86.032,116.92 86.608,117.56C89.616,121.056 89.616,121.056 89.544,123.944C88.754,128.352 86.736,132.424 84.952,136.504C82.104,143.184 79.32,149.704 77.6,156.824C77.38,157.696 77.38,157.696 77.156,158.584C76.316,162.96 77.254,167.304 79.196,171.224C80.956,172.8 82.036,173.544 84.348,174.072C87.924,173.287 89.492,170.144 91.452,167.288C94.212,163.288 94.212,163.288 96.796,162.424C98.796,165.416 98.636,166.872 98.396,170.424C97.923,172.256 97.388,174.072 96.796,175.872C94.196,184.832 94.62,189.712 99.132,197.952C101.228,201.64 103.46,205.24 105.756,208.832C107.996,212.616 109.94,216.232 109.892,220.672C109.898,221.271 109.904,221.872 109.911,222.488C109.592,224.024 109.592,224.024 107.191,225.624C104.895,225.974 104.895,225.974 102.391,225.624C99.159,222.856 97.279,219.936 95.343,216.184C94.859,215.256 94.375,214.328 93.879,213.368C93.521,212.664 93.163,211.96 92.791,211.232C89.871,213.376 89.647,216.32 89.095,219.712C88.071,225.512 88.071,225.512 87.191,227.264C84.991,227.514 84.991,227.514 82.391,227.264C79.207,223.976 77.759,220.184 76.079,215.984C75.175,213.768 74.503,212.168 72.791,210.456C70.775,210.272 70.775,210.272 68.791,211.256C66.607,215.048 65.871,218.936 65.135,223.256C64.791,224.888 64.791,224.888 63.991,225.688C58.887,226.066 58.887,226.066 57.079,224.696C55.823,223.08 55.375,221.752 54.839,219.792C53.879,216.656 52.663,214.52 50.391,212.096C48.479,211.994 48.479,211.994 46.391,212.896C43.807,216.432 42.591,220.832 41.359,224.976C40.79,226.48 40.79,226.48 39.191,228.08C36.543,228.43 36.543,228.43 33.591,228.08C31.503,226.448 30.047,224.752 28.559,222.56C25.311,217.832 21.767,215.608 16.799,212.88C14.959,211.808 13.127,210.728 11.295,209.632C10.439,209.128 9.583,208.624 8.703,208.104C5.071,205.552 2.919,202.72 1.599,198.504C1.328,196.808 1.097,195.112 0.899,193.4C0.112,187.928 -1.317,183.8 -5.597,180.12C-10.133,178.088 -15.277,177.328 -20.077,176.424C-20.841,176.276 -20.841,176.276 -21.621,176.126C-33.621,174.022 -45.861,174.446 -57.941,174.662C-59.957,174.695 -61.973,174.714 -63.989,174.731C-64.606,174.746 -65.221,174.76 -65.861,174.776C-67.581,174.784 -67.581,174.784 -70.349,174.525C-70.877,173.733 -71.405,172.941 -71.949,172.125C-69.317,168.957 -66.421,167.861 -62.589,166.677C-61.965,166.477 -61.341,166.277 -60.701,166.07C-50.221,162.774 -39.661,159.774 -29.021,157.27L-26.413,156.647C-24.781,156.262 -23.149,155.887 -21.517,155.527C-15.517,154.119 -10.157,152.119 -6.477,146.887C-2.493,139.751 -1.829,131.047 -0.973,123.047C-0.818,121.695 -0.818,121.695 -0.659,120.311C-0.174,115.951 0.213,111.671 0.077,107.271C-0.715,107.007 -1.507,106.743 -2.323,106.471C-2.44,106.957 -2.558,107.447 -2.679,107.943C-6.503,122.903 -11.719,138.743 -25.399,147.143C-27.879,148.519 -30.447,149.447 -33.143,150.287C-34.031,150.573 -34.031,150.573 -34.943,150.866C-48.063,155.018 -61.263,159.106 -74.703,162.146C-75.247,162.271 -75.791,162.396 -76.351,162.525C-80.863,163.485 -85.471,164.293 -89.471,161.693C-88.471,157.485 -86.343,154.533 -83.855,151.133C-82.271,148.933 -80.767,146.693 -79.271,144.429C-77.519,141.773 -75.743,139.141 -73.903,136.549C-68.767,129.293 -64.223,121.829 -59.823,114.069C-53.015,102.149 -53.015,102.149 -47.983,98.309C-42.023,93.277 -38.303,86.629 -34.543,79.909C-29.407,70.789 -22.863,62.469 -16.143,54.549C-13.687,51.485 -11.391,48.317 -9.095,45.109C-8.424,44.181 -8.424,44.181 -7.743,43.229C-5.719,40.405 -3.711,37.573 -1.743,34.749C1.953,29.405 5.865,24.589 10.337,19.869C12.649,17.437 14.785,14.973 16.793,12.277C18.833,9.565 20.993,7.437 23.625,5.309C25.537,3.741 27.217,1.997 28.937,0.229L28.8,0Z" style="fill:rgb(252,253,255);fill-rule:nonzero;"/>
        </g>
        <g transform="matrix(1,0,0,1,644,500.8)">
            <path d="M28.8,0C31.472,1.032 33.76,2.184 35.336,4.68C37.192,9.48 36.099,15 35.138,19.88C31.562,38.28 31.498,58.92 41.602,75.24C45.882,81.384 51.042,88.28 58.562,90.36C60.898,90.761 63.21,91.07 65.578,91.264C65.298,85.472 62.77,82.784 58.994,78.624C55.994,75.104 55.994,75.104 55.898,71.896C56.922,69.312 57.682,68.656 60.074,67.296C64.586,64.552 68.474,61.616 71.754,57.456C73.602,55.304 73.602,55.304 75.45,54.608C75.896,54.575 76.338,54.542 76.802,54.508C78.554,56.636 80.082,58.652 81.45,61.06C83.642,63.876 85.354,64.252 88.802,64.908C88.967,64.248 89.133,63.588 89.302,62.908C90.702,59.348 92.526,56.452 95.206,53.708C97.51,52.908 97.51,52.908 99.206,52.908C101.55,55.836 103.014,58.932 104.582,62.348C105.558,64.372 105.558,64.372 108.006,65.74C110.038,66.006 110.038,66.006 112.006,65.74C113.926,63.82 114.222,62.38 115.006,59.788C116.462,55.572 116.462,55.572 119.406,53.588C120.494,53.266 120.494,53.266 121.606,52.938C123.982,55.722 125.574,58.474 127.206,61.738C129.374,62.818 131.214,62.594 133.606,62.538C133.742,62.026 133.878,61.514 134.019,60.986C135.267,56.546 136.659,52.826 139.203,48.906C141.435,47.794 143.139,47.898 145.603,48.106C147.275,50.618 147.403,51.186 147.387,54.042C147.386,54.731 147.384,55.418 147.383,56.13C147.373,56.848 147.363,57.562 147.353,58.306C147.352,59.362 147.352,59.362 147.351,60.442C147.325,64.41 147.021,68.178 146.399,72.122C145.207,84.202 149.263,92.042 156.399,101.642C158.935,105.21 159.647,107.666 159.183,112.122C156.783,117.018 152.527,120.362 147.663,122.602C141.535,124.698 135.263,124.09 128.943,123.353C102.703,120.425 77.023,122.82 51.343,128.657C36.223,131.993 19.663,132.137 6.063,123.889C-5.057,116.241 -9.537,106.529 -12.257,93.729C-13.265,88.097 -12.775,83.169 -11.313,77.649C-11.114,76.849 -11.114,76.849 -10.911,76.025C-10.225,73.361 -9.423,70.865 -8.303,68.345C-5.823,62.569 -6.111,56.665 -6.063,50.425C-6.056,49.625 -6.056,49.625 -6.049,48.809C-6.012,41.121 -6.676,34.009 -9.009,26.649C-10.225,22.809 -10.529,20.121 -9.562,16.089C-7.618,12.409 -6.298,10.905 -2.362,9.689C0.494,9.227 3.366,8.989 6.278,8.721C9.502,8.39 12.374,8.061 15.238,6.489C16.078,4.913 16.878,3.305 17.638,1.689C21.142,-1.631 24.39,-0.919 28.838,0.089L28.8,0Z" style="fill:rgb(252,253,255);fill-rule:nonzero;"/>
        </g>
        <g transform="matrix(1,0,0,1,550.4,495.2)">
            <path d="M28.8,0C30.4,0.8 30.4,0.8 30.952,2.4C31.952,4.32 31.952,4.32 34.752,4.648C37.568,4.97 37.568,4.97 40,3.998C41.208,4.774 41.208,4.774 42.496,5.998C44.616,7.942 46.768,9.67 49.096,11.35C59.256,19.246 65.496,30.71 67.976,43.19C68.105,46.806 67.769,50.03 67.176,53.59C67.226,54.414 67.275,55.238 67.326,56.086C66.78,67.366 59.894,77.206 51.966,84.806C49.406,86.878 46.774,88.694 43.966,90.406C43.193,90.886 43.193,90.886 42.406,91.374C36.286,94.79 28.566,96.614 21.606,96.006C20.814,95.742 20.022,95.478 19.206,95.206C18.447,95.388 17.686,95.57 16.902,95.757C8.99,97.045 -0.778,91.661 -7.018,87.197C-16.538,79.749 -23.098,70.397 -25.578,58.397C-25.842,57.869 -26.106,57.341 -26.378,56.797C-27.218,46.397 -26.144,38.157 -21.578,28.797C-21.163,27.933 -20.746,27.069 -20.322,26.181C-15.122,16.421 -7.682,9.941 2.398,5.621C3.19,5.093 3.982,4.565 4.798,4.021C6.494,3.774 6.494,3.774 8.35,3.67C11.454,3.405 12.726,2.694 15.198,0.822C17.614,1.015 19.43,1.339 21.598,2.422C25.006,2.783 25.006,2.783 27.902,1.222C28.348,0.629 28.348,0.629 28.798,0.022L28.8,0Z" style="fill:rgb(7,5,13);fill-rule:nonzero;"/>
        </g>
        <g transform="matrix(1,0,0,1,580,498.4)">
            <path d="M28.8,0C29.254,0.408 29.712,0.816 30.176,1.24C30.705,1.714 31.232,2.192 31.776,2.68C37.728,8.328 41.856,14.6 45.216,22.04C45.448,22.552 45.68,23.064 45.919,23.592C51.671,37.032 51.599,55.272 46.547,68.872C44.883,72.768 43.083,76.224 40.563,79.672C40.054,80.383 39.547,81.096 39.019,81.832C30.379,93.192 18.699,100.472 4.539,102.872C-12.581,104.92 -29.861,103.206 -43.941,92.312C-55.941,82.472 -63.701,69.592 -65.861,54.072C-67.029,36.552 -62.365,20.552 -51.141,6.952C-30.421,-15.208 4.779,-19.528 28.699,0.064L28.8,0ZM-1.04,-3.56C-1.354,-3.164 -1.667,-2.768 -1.992,-2.36C-3.44,-1.16 -3.44,-1.16 -5.792,-0.912C-8.24,-1.162 -8.24,-1.162 -9.84,-2.016C-12.176,-3.112 -13.792,-2.604 -16.24,-1.966C-16.768,-1.438 -17.296,-0.91 -17.84,-0.366C-19.4,-0.148 -19.4,-0.148 -21.24,-0.066C-24.896,0.261 -26.864,1.438 -29.88,3.63C-30.768,3.976 -31.664,4.323 -32.584,4.678C-36.336,6.422 -38.952,8.75 -41.864,11.63C-42.343,12.1 -42.824,12.566 -43.32,13.054C-53.72,24.014 -56.84,37.054 -56.52,51.614C-56.251,53.47 -55.544,54.758 -54.688,56.422C-54.539,57.43 -54.391,58.438 -54.238,59.47C-51.91,70.35 -43.838,78.83 -35.038,85.07C-28.166,89.454 -20.478,92.51 -12.238,92.43C-11.446,92.166 -10.654,91.902 -9.838,91.63C-9.046,92.026 -9.046,92.026 -8.238,92.43C4.962,92.528 15.602,87.27 25.122,78.35C32.21,70.966 37.522,61.39 37.442,50.99C37.418,50.242 37.394,49.494 37.37,48.726C37.392,46.838 37.392,46.838 38.194,45.238C38.838,34.518 34.25,24.678 27.794,16.438C27.39,15.899 26.986,15.358 26.57,14.806C23.986,11.558 20.962,9.078 17.61,6.646C16.402,5.742 15.226,4.806 14.082,3.83C10.698,0.926 10.698,0.926 6.322,0.678C5.482,0.876 4.642,1.074 3.77,1.278C1.362,-0.33 0.866,-0.994 -0.23,-3.522L-1.03,-3.522L-1.04,-3.56Z" style="fill:rgb(252,253,255);fill-rule:nonzero;"/>
        </g>
        <g transform="matrix(1,0,0,1,686.4,394.4)">
            <path d="M28.8,0C31.08,1.136 33.24,2.368 35.2,4L35.2,5.6L36.8,5.6C46.8,17.44 48.32,37.04 47.2,52C46.429,58.016 44.192,61.36 39.456,65.12C34.04,68.928 28.896,69.728 22.416,68.824C17.728,67.136 15.736,63.44 13.616,59.144C11.576,53.488 10.888,48.024 10.928,42.024C10.932,41.331 10.936,40.64 10.94,39.928C11.181,26.408 14.276,11.528 21.58,0.008C24.164,-1.288 25.996,-0.621 28.78,0.008L28.8,0Z" style="fill:rgb(7,5,13);fill-rule:nonzero;"/>
        </g>
    </g>
    <g id="Caps-Piraterna" serif:id="Caps Piraterna">
        <g transform="matrix(1,0,0,1,594.4,928)">
            <path d="M28.8,0C29.398,-0.001 30,-0.002 30.616,-0.002C31.88,-0.003 33.144,-0.001 34.408,0.002C36.32,0.006 38.232,0.002 40.152,-0.003C57.832,-0.013 57.832,-0.013 62.552,4.109C77.032,19.069 79.672,41.309 79.592,61.149C79.583,62.949 79.592,64.749 79.602,66.541C79.619,82.621 77.618,98.621 65.922,110.541C65.098,111.33 64.266,112.117 63.426,112.893C64.103,113.635 64.778,114.381 65.474,115.141C79.234,131.301 79.714,150.421 79.874,170.661C79.963,184.981 79.963,184.981 81.45,199.141C81.956,202.477 82.174,205.805 82.322,209.141C82.353,209.735 82.384,210.333 82.416,210.941C82.489,212.357 82.556,213.773 82.622,215.189C77.278,215.678 71.902,216.077 66.542,216.237C65.71,216.267 64.87,216.297 64.014,216.327C61.182,215.893 60.326,215.023 58.59,212.783C53.958,203.903 55.246,192.143 55.11,182.383C55.066,179.351 55.009,176.319 54.953,173.263C54.85,167.639 54.752,161.983 54.674,156.383C54.619,152.447 54.549,148.519 54.469,144.623C54.442,143.135 54.42,141.639 54.404,140.143C54.38,138.063 54.338,135.975 54.291,133.895C54.289,133.284 54.286,132.671 54.284,132.047C54.164,127.951 53.228,125.527 50.596,122.367C48.532,121.527 48.532,121.527 46.596,121.567C44.964,123.199 45.668,126.631 45.668,128.879C45.664,129.562 45.66,130.247 45.656,130.951C45.644,133.223 45.639,135.495 45.635,137.767C45.63,139.343 45.625,140.919 45.621,142.503C45.612,145.823 45.608,149.135 45.605,152.423C45.601,156.663 45.581,160.903 45.559,165.143C45.544,168.407 45.539,171.671 45.538,174.903C45.536,176.463 45.529,178.023 45.519,179.591C45.505,181.783 45.507,183.975 45.512,186.175C45.505,186.814 45.497,187.455 45.49,188.111C45.519,192.135 46.238,195.415 47.658,199.151C48.327,201.047 48.474,202.711 48.434,204.711C48.425,205.607 48.425,205.607 48.415,206.527C48.394,207.255 48.372,207.983 48.349,208.735C48.322,210.007 48.295,211.287 48.269,212.559C48.246,213.663 48.223,214.775 48.199,215.879C44.031,215.919 39.879,215.948 35.719,215.967C34.303,215.975 32.879,215.986 31.463,216C29.423,216.019 27.383,216.029 25.343,216.036C24.391,216.048 24.391,216.048 23.415,216.061C20.327,216.061 18.863,216.035 16.231,214.277C15.319,207.981 15.846,200.437 19.431,195.077C20.591,187.093 20.391,178.837 20.487,170.757C20.504,169.461 20.521,168.173 20.538,166.877C20.593,162.613 20.639,158.317 20.684,154.077C20.692,153.344 20.7,152.613 20.708,151.853C20.83,140.253 20.925,128.653 21.012,117.053C21.035,114.109 21.059,111.157 21.083,108.173C21.177,96.573 21.254,85.053 21.296,73.453C21.315,68.253 21.341,63.053 21.382,57.853C21.421,52.917 21.441,48.013 21.446,43.053C21.451,41.221 21.463,39.397 21.482,37.565C21.507,35.053 21.507,32.541 21.502,30.021C21.515,29.287 21.528,28.557 21.541,27.797C21.493,22.853 20.501,20.845 17.037,17.317C16.558,15.405 16.558,15.405 16.59,13.581C16.596,12.917 16.601,12.253 16.607,11.573C16.634,10.895 16.66,10.221 16.687,9.517C16.692,8.827 16.696,8.141 16.701,7.429C16.8,2.357 16.8,2.357 18.637,0.517C22.013,-0.459 25.413,-0.403 28.877,-0.387L28.8,0Z" style="fill:rgb(252,253,255);fill-rule:nonzero;"/>
        </g>
        <g transform="matrix(1,0,0,1,488,927.2)">
            <path d="M28.8,0C29.537,0.004 30.272,0.008 31.032,0.012C33.456,0.032 35.88,0.064 38.296,0.1C39.144,0.11 39.992,0.12 40.864,0.13C43.424,0.168 45.984,0.23 48.544,0.3C49.34,0.311 50.136,0.322 50.952,0.334C57.152,0.545 61.512,1.702 65.912,6.206C84.792,32.366 83.432,71.086 78.712,101.406C76.664,113.326 73.832,124.286 65.512,133.406L63.912,133.406C63.648,134.198 63.384,134.99 63.112,135.806C58.984,138.046 55.456,138.59 50.792,138.702C47.04,138.499 47.04,138.499 43.896,139.806C42.64,147.806 42.672,156.126 42.432,164.206C42.376,165.934 42.31,167.67 42.234,169.398C41.818,178.918 41.577,186.678 46.01,195.238C47.522,198.302 47.61,200.366 47.402,203.718C47.358,204.654 47.315,205.598 47.27,206.558C47.215,207.236 47.159,207.918 47.102,208.614C40.054,209.119 33.262,208.294 26.302,207.262C24.982,207.083 24.982,207.083 23.638,206.902C16.606,205.798 16.606,205.798 14.118,203.494C12.182,200.67 12.11,198.286 12.694,195.014C13.742,192.214 13.742,192.214 15.094,189.414C17.102,184.718 17.878,180.854 17.99,175.814C18.028,174.734 18.028,174.734 18.067,173.63C18.152,171.158 18.221,168.686 18.29,166.214C18.348,164.398 18.406,162.582 18.466,160.766C18.583,157.126 18.697,153.486 18.806,149.806C19.033,142.222 19.29,134.606 19.554,127.086C21.146,82.206 21.146,82.206 21.794,37.486C21.8,36.582 21.806,35.678 21.812,34.75C21.826,32.286 21.823,29.822 21.812,27.35C21.817,26.652 21.822,25.958 21.827,25.238C21.782,21.454 21.392,19.19 19.091,16.038C17.851,11.014 18.003,5.718 19.891,0.838C22.635,-0.53 25.771,-0.082 28.771,-0.058L28.8,0Z" style="fill:rgb(252,253,255);fill-rule:nonzero;"/>
        </g>
        <g transform="matrix(1,0,0,1,844,923.2)">
            <path d="M28.8,0C34.168,-0.163 38.56,-0.205 42.8,3.36C54.8,15.12 59.84,31.68 60.4,48.16C60.448,49.288 60.448,49.288 60.497,50.432C60.79,63.552 58.145,75.312 50.017,85.792C49.327,86.385 49.327,86.385 48.625,86.992C47.441,88.136 47.441,88.136 47.681,89.784C48.601,91.8 49.673,92.648 51.417,94C60.217,101.416 61.577,111.68 62.777,122.64C63.145,127.464 63.385,132.32 63.601,137.12C63.903,143.712 64.553,149.92 66.265,156.32C67.033,159.752 66.988,163.104 66.774,166.64C51.494,174.496 51.494,174.496 45.174,173.04C42.598,167.704 41.63,162.48 41.142,156.64C41.077,155.91 41.012,155.184 40.945,154.432C40.137,145.152 39.585,135.872 39.033,126.512C39.303,112.832 39.303,112.832 34.777,100.992C31.713,101.142 31.713,101.142 29.177,102.592C28.841,109.088 29.285,115.632 29.646,122.112C29.695,123.024 29.745,123.928 29.795,124.864C29.9,126.768 30.006,128.672 30.114,130.576C30.277,133.472 30.43,136.368 30.583,139.296C30.687,141.16 30.791,143.024 30.896,144.88C30.94,145.736 30.985,146.592 31.03,147.472C31.409,153.928 32.214,160.112 34.43,166.192C35.782,170.008 36.134,173.776 36.382,177.792C31.814,181.352 26.622,182.944 21.182,184.792C20.254,185.121 19.318,185.45 18.366,185.792C17.462,186.102 16.566,186.413 15.638,186.736C14.414,187.158 14.414,187.158 13.166,187.592C10.678,188.23 8.542,188.314 5.99,188.202C4.55,183.97 3.686,179.882 4.39,175.402C4.786,174.678 5.18,173.954 5.59,173.21C6.902,170.378 7.11,168.578 7.142,165.474C7.148,164.958 7.153,164.442 7.159,163.906C7.17,162.122 7.159,160.338 7.146,158.546C7.144,157.903 7.142,157.258 7.141,156.594C7.052,134.194 5.485,111.874 4.245,89.474C3.764,80.834 3.309,72.194 2.885,63.634C2.857,63.083 2.83,62.53 2.801,61.962C2.569,57.282 2.337,52.602 2.107,47.882C1.971,45.114 1.833,42.354 1.694,39.562C1.656,38.771 1.618,37.978 1.578,37.162C1.385,33.354 1.157,29.546 0.869,25.722C0.818,25.017 0.765,24.314 0.713,23.586C0.334,21.306 -0.727,19.754 -1.999,17.85C-3.895,13.77 -4.391,8.57 -4.399,4.09C-2.623,1.722 -1.959,1.682 1.145,1.17C2.497,1.062 3.849,0.97 5.201,0.892C5.953,0.849 6.705,0.805 7.481,0.76C12.601,0.502 17.721,0.337 22.841,0.171C24.817,0.104 26.785,0.02 28.761,-0.071L28.8,0Z" style="fill:rgb(252,253,255);fill-rule:nonzero;"/>
        </g>
        <g transform="matrix(1,0,0,1,674.4,928)">
            <path d="M28.8,0C30.416,0.007 32.04,-0.016 33.656,-0.042C34.68,-0.041 35.696,-0.041 36.752,-0.04C37.688,-0.042 38.616,-0.043 39.584,-0.045C41.92,0.357 41.92,0.357 43.232,1.755C44.424,3.723 44.712,4.955 44.912,7.227C44.982,7.957 45.051,8.683 45.123,9.435C45.188,10.231 45.254,11.027 45.32,11.843C45.398,12.691 45.475,13.539 45.556,14.419C45.805,17.163 46.039,19.907 46.274,22.659C46.427,24.379 46.582,26.091 46.738,27.811C47.402,35.203 48.034,42.611 48.666,49.971C50.546,71.971 52.538,93.891 54.666,115.811C54.973,118.979 55.278,122.155 55.586,125.331C57.034,140.531 58.49,155.651 60.218,170.771C60.348,171.915 60.476,173.059 60.602,174.203C61.41,181.499 62.73,188.203 65.098,195.163C66.402,199.491 66.642,203.803 66.73,208.363C61.474,210.251 56.17,210.931 50.65,211.715C49.634,211.867 48.626,212.019 47.578,212.176C46.114,212.386 46.114,212.386 44.618,212.599C43.29,212.791 43.29,212.791 41.93,212.987C39.578,213.159 37.77,212.954 35.498,212.365C34.082,208.205 33.018,203.965 33.898,199.565C34.427,198.823 34.954,198.085 35.498,197.317C37.45,194.197 37.45,192.413 37.346,188.757C37.333,188.204 37.32,187.653 37.307,187.085C37.259,185.373 37.183,183.669 37.097,181.957C37.07,181.418 37.044,180.877 37.017,180.325C36.789,175.973 36.556,171.765 35.497,167.525C28.369,168.317 28.369,168.317 21.097,169.125C20.455,174.253 20.049,179.125 19.945,184.245C19.908,184.995 19.872,185.749 19.834,186.517C19.75,191.765 20.858,194.413 23.994,198.597C25.762,201.365 25.81,203.957 25.794,207.157C25.81,207.735 25.827,208.317 25.844,208.909C25.881,210.309 25.89,211.709 25.894,213.109C21.302,214.685 17.254,214.933 12.374,214.861C11.681,214.861 10.99,214.86 10.278,214.86C5.19,214.824 5.19,214.824 4.278,213.908C3.769,208.604 3.997,202.228 7.086,197.748C8.758,194.612 8.878,191.716 9.126,188.228C9.188,187.463 9.25,186.7 9.314,185.908C10.037,176.548 10.522,167.268 11.034,157.908C11.452,150.284 11.914,142.628 12.386,135.028C12.532,132.652 12.677,130.284 12.821,127.908C13.371,118.868 13.933,109.908 14.509,100.868C14.881,95.076 15.247,89.268 15.613,83.508C15.84,79.892 16.07,76.284 16.306,72.628C17.178,59.188 18.042,45.828 18.098,32.388C18.104,31.492 18.111,30.604 18.117,29.684C18.086,23.972 17.317,19.284 15.413,13.844C14.285,10.308 13.653,6.38 14.685,2.724C19.029,-0.58 23.485,-0.068 28.765,-0.036L28.8,0Z" style="fill:rgb(251,252,254);fill-rule:nonzero;"/>
        </g>
        <g transform="matrix(1,0,0,1,340.8,922.4)">
            <path d="M28.8,0C29.808,-0.001 30.824,-0.001 31.864,-0.002C32.952,0.011 34.032,0.025 35.12,0.041C35.663,0.045 36.208,0.049 36.768,0.053C61.408,0.245 61.408,0.245 67.808,5.669C76.688,16.309 80.288,28.949 81.408,42.709C81.489,43.709 81.489,43.709 81.57,44.733C83.01,64.013 83.73,92.653 71.73,108.973C67.706,113.637 63.986,117.693 57.65,118.493C53.818,118.755 50.122,118.438 46.29,117.969C45.722,117.927 45.154,117.886 44.57,117.844C40.378,122.036 42.426,138.564 42.25,144.244C42.184,146.26 42.101,148.276 42.008,150.292C41.859,155.18 42.02,158.284 44.608,162.452C46.368,166.652 46.056,171.732 46.176,176.292C39.944,176.181 35.056,173.924 29.456,171.372C25.624,169.612 21.704,168.124 17.776,166.644C15.792,165.888 15.792,165.888 14.192,165.084C14.262,163.436 14.349,161.78 14.442,160.132C14.488,159.212 14.534,158.292 14.582,157.348C15.017,154.524 15.878,153.06 17.39,150.684C18.406,146.924 18.478,143.044 18.694,139.164C18.739,138.411 18.783,137.66 18.829,136.884C18.975,134.388 19.118,131.884 19.26,129.388C19.362,127.62 19.465,125.86 19.568,124.092C19.784,120.372 19.998,116.652 20.211,112.892C20.478,108.228 20.749,103.532 21.019,98.892C21.995,82.092 22.963,65.292 23.835,48.492C23.904,47.18 23.973,45.868 24.044,44.564C24.265,40.468 24.451,36.404 24.587,32.244C24.619,31.292 24.619,31.292 24.652,30.324C24.71,28.38 24.748,26.444 24.778,24.5C24.796,23.915 24.813,23.332 24.832,22.724C24.863,18.62 23.96,15.932 22.184,12.244C21.69,9.684 21.69,9.684 21.484,7.244C21.403,6.428 21.323,5.62 21.24,4.78C21.384,2.644 21.384,2.644 22.28,1.324C24.464,-0.252 26.144,-0.06 28.824,-0.052L28.8,0Z" style="fill:rgb(252,253,255);fill-rule:nonzero;"/>
        </g>
        <g transform="matrix(1,0,0,1,791.2,925.6)">
            <path d="M28.8,0C29.784,-0.01 30.768,-0.021 31.776,-0.032C32.688,-0.033 33.6,-0.033 34.544,-0.034C35.36,-0.038 36.168,-0.041 37.008,-0.044C38.952,0.15 38.952,0.15 40.552,1.748C40.954,3.436 41.275,5.14 41.552,6.844C41.81,8.404 41.81,8.404 42.072,9.988C42.158,10.532 42.245,11.076 42.334,11.636C42.594,13.268 42.863,14.892 43.134,16.516C44.518,24.916 45.486,33.236 45.35,41.716C42.926,41.992 41.574,41.832 39.39,40.7C36.23,37.324 35.542,33.372 34.398,28.94C33.93,27.212 33.462,25.492 32.99,23.772C32.79,23.008 32.589,22.244 32.382,21.46C31.763,19.34 31.006,17.332 30.15,15.292C28.814,15.257 27.486,15.259 26.15,15.292C25.174,16.092 25.174,16.092 25.246,17.708C25.271,24.972 25.618,32.188 25.99,39.468C26.179,43.188 26.362,46.9 26.542,50.588C26.578,51.326 26.613,52.068 26.65,52.828C27.124,62.668 27.45,72.588 27.754,82.508C31.066,82.676 31.066,82.676 34.154,81.708C34.49,80.132 34.49,80.132 34.576,78.244C34.632,77.539 34.689,76.836 34.746,76.108C34.851,74.62 34.953,73.132 35.053,71.636C35.11,70.928 35.167,70.22 35.226,69.492C35.271,68.843 35.315,68.196 35.361,67.524C35.838,65.316 36.609,64.14 38.153,62.508C40.305,62.308 40.305,62.308 42.153,62.508C44.025,65.468 44.097,68.452 44.257,71.868C44.29,72.471 44.323,73.076 44.358,73.7C44.463,75.66 44.558,77.62 44.65,79.58C44.719,80.924 44.787,82.26 44.856,83.604C45.351,93.684 45.54,103.684 45.35,113.764C42.59,114.015 41.062,114.115 38.734,112.516C36.966,110.02 36.542,107.908 35.998,104.916C35.256,100.892 35.256,100.892 34.15,96.964C31.374,97.756 31.374,97.756 28.55,98.564C28.59,99.46 28.63,100.356 28.672,101.284C29.05,109.764 29.427,118.244 29.8,126.724C30.03,131.932 30.263,137.124 30.497,142.324C30.646,145.66 30.794,148.996 30.942,152.324C31.012,153.924 31.084,155.516 31.156,157.116C31.257,159.356 31.356,161.604 31.455,163.844C31.485,164.497 31.515,165.148 31.546,165.828C31.683,169.012 31.751,172.172 31.717,175.348C31.375,178.34 31.375,178.34 32.549,179.332C34.485,179.665 34.485,179.665 36.549,179.332C39.549,176.524 39.677,172.9 40.197,169.012C40.297,168.337 40.397,167.66 40.5,166.972C40.959,163.852 41.38,160.724 41.74,157.612C42.876,148.332 42.876,148.332 46.148,144.972C48.348,143.868 48.348,143.868 50.148,143.372C51.124,145.316 51.052,146.572 51.068,148.748C51.073,149.533 51.078,150.316 51.083,151.124C51.084,151.972 51.085,152.828 51.086,153.708C51.09,155.02 51.09,155.02 51.094,156.356C51.098,158.212 51.1,160.06 51.1,161.916C51.102,164.748 51.116,167.58 51.131,170.396C51.134,172.196 51.135,173.996 51.136,175.796C51.142,176.644 51.148,177.484 51.154,178.356C51.128,186.516 51.128,186.516 49.354,189.796C47.37,190.868 47.37,190.868 44.858,191.524C43.474,191.904 43.474,191.904 42.058,192.291C40.57,192.664 40.57,192.664 39.05,193.045C38.042,193.314 37.034,193.583 35.994,193.861C32.986,194.659 29.962,195.429 26.954,196.197C25.338,196.628 23.722,197.061 22.106,197.493C20.706,197.863 19.306,198.23 17.906,198.597C17.277,198.764 16.65,198.929 16.002,199.1C7.442,201.244 7.442,201.244 3.762,199.397C3.29,197.269 3.29,197.269 3.011,194.549C2.905,193.669 2.798,192.781 2.69,191.869C2.974,188.861 3.203,188.533 4.954,186.341C8.018,181.573 7.442,176.421 7.298,170.981C7.281,169.789 7.265,168.597 7.25,167.405C7.19,163.405 7.079,159.405 6.957,155.405C6.936,154.697 6.914,153.989 6.892,153.261C6.551,142.141 6.095,131.101 5.62,119.981C5.471,116.509 5.325,113.029 5.179,109.581C4.885,102.589 4.587,95.581 4.291,88.621C3.93,80.221 3.584,71.821 3.259,63.421C3.087,59.061 2.909,54.701 2.727,50.301C2.611,47.485 2.496,44.669 2.391,41.821C2.277,38.773 2.147,35.717 2.014,32.701C1.984,31.829 1.954,30.949 1.923,30.053C1.705,25.389 1.127,21.973 -1.037,17.813C-3.357,12.813 -4.157,8.133 -3.437,2.613C-1.533,0.709 -1.045,0.789 1.555,0.685C2.267,0.654 2.979,0.623 3.707,0.591C4.875,0.554 4.875,0.554 6.059,0.516C6.859,0.487 7.659,0.458 8.483,0.428C15.259,0.206 22.003,0.109 28.803,0.066L28.8,0Z" style="fill:rgb(252,253,255);fill-rule:nonzero;"/>
        </g>
        <g transform="matrix(1,0,0,1,752.8,926.4)">
            <path d="M28.8,0C29.984,2.368 29.984,4.864 30.2,7.464C30.252,8.056 30.305,8.648 30.358,9.256C30.526,11.184 30.687,13.112 30.847,15.048C30.93,16.024 30.93,16.024 31.014,17.024C31.854,27.104 32.318,37.104 31.998,47.184C26.598,47.284 26.598,47.284 24.798,46.384C24.274,44.608 24.274,44.608 23.822,42.272C23.654,41.416 23.486,40.56 23.312,39.68C23.142,38.776 22.972,37.872 22.796,36.944C22.626,36.072 22.456,35.208 22.28,34.312C21.152,28.488 20.144,22.632 19.192,16.792C18.4,16.528 17.608,16.264 16.792,15.992C16.572,31.832 17.189,47.672 17.712,63.512C17.79,65.888 17.866,68.264 17.944,70.632C18.213,78.952 18.484,87.272 18.76,95.512C19.015,103.224 19.262,110.952 19.507,118.632C19.718,125.288 19.935,131.912 20.155,138.632C20.286,142.592 20.415,146.552 20.539,150.552C20.655,154.272 20.778,157.984 20.906,161.672C20.951,163.032 20.994,164.392 21.035,165.752C20.966,177.032 20.966,177.032 24.851,187.272C27.931,191.944 27.315,197.832 27.203,203.192C22.483,205.24 17.603,205.968 12.563,206.888C11.603,207.071 10.643,207.255 9.659,207.444C4.763,208.348 0.219,209.02 -4.821,208.788C-6.181,206.364 -6.813,204.244 -7.173,201.492C-7.279,200.797 -7.386,200.1 -7.494,199.388C-7.209,196.668 -6.566,195.468 -5.246,193.116C-2.71,188.3 -2.79,184.236 -2.926,178.876C-3.07,172.54 -3.214,166.236 -3.347,159.836C-3.801,138.316 -4.427,116.716 -5.147,95.196C-5.358,88.884 -5.567,82.556 -5.774,76.236C-5.825,74.692 -5.876,73.148 -5.927,71.604C-6.197,63.444 -6.45,55.284 -6.65,47.204C-6.668,46.507 -6.685,45.812 -6.703,45.092C-6.784,41.836 -6.861,38.572 -6.932,35.332C-7.081,28.852 -7.383,22.452 -8.028,15.972L-11.228,15.972C-11.882,19.444 -12.156,22.764 -12.228,26.292C-12.254,27.332 -12.28,28.38 -12.308,29.452C-12.345,31.084 -12.381,32.724 -12.412,34.356C-12.444,35.948 -12.486,37.548 -12.528,39.14C-12.548,40.084 -12.568,41.028 -12.588,42.004C-12.852,45.012 -13.516,47.5 -14.428,50.404C-20.628,50.504 -20.628,50.504 -22.428,49.604C-22.484,43.7 -22.527,37.764 -22.552,31.924C-22.565,29.18 -22.582,26.444 -22.609,23.684C-22.64,20.532 -22.652,17.38 -22.662,14.244C-22.675,13.26 -22.687,12.276 -22.7,11.26C-22.7,10.348 -22.7,9.436 -22.7,8.492C-22.708,7.284 -22.708,7.284 -22.717,6.052C-22.428,4.036 -22.428,4.036 -21.373,2.58C-19.165,1.028 -16.973,1.22 -14.317,1.116C-13.469,1.077 -13.469,1.077 -12.605,1.038C-10.813,0.959 -9.021,0.898 -7.229,0.838C-6.109,0.794 -4.981,0.75 -3.861,0.706C-1.077,0.601 1.707,0.514 4.459,0.435C6.155,0.387 7.843,0.335 9.539,0.282C15.939,0.09 22.339,-0.011 28.739,0.037L28.8,0Z" style="fill:rgb(252,253,255);fill-rule:nonzero;"/>
        </g>
        <g transform="matrix(1,0,0,1,554.4,928)">
            <path d="M28.8,0C29.744,-0.001 29.744,-0.001 30.712,-0.001C32.04,0.001 33.376,0.008 34.704,0.022C36.744,0.041 38.784,0.038 40.824,0.033C42.12,0.037 43.408,0.043 44.704,0.05C45.316,0.049 45.928,0.049 46.56,0.048C50.864,0.106 50.864,0.106 52.648,1.888C53.051,4.624 52.982,7.376 52.998,10.128C53.025,10.889 53.051,11.648 53.078,12.432C53.084,13.169 53.089,13.904 53.095,14.664C53.106,15.337 53.117,16.008 53.128,16.704C52.649,18.672 52.649,18.672 50.656,20.456C47.808,23.6 48.08,26.016 48.112,30.136C48.097,31.288 48.097,31.288 48.082,32.456C48.052,35.064 48.051,37.672 48.049,40.28C48.034,42.184 48.016,44.08 47.996,45.976C47.961,49.664 47.932,53.36 47.911,57.016C47.868,64.536 47.773,72.056 47.664,79.576C47.098,118.456 46.94,157.336 47.049,196.376C47.544,196.59 48.041,196.805 48.553,197.025C50.249,197.977 50.249,197.977 51.849,200.377C52.031,202.041 52.031,202.041 52.005,203.937C52,204.616 51.995,205.297 51.99,205.993C51.976,206.698 51.963,207.401 51.949,208.129C51.942,208.844 51.935,209.561 51.927,210.297C51.908,212.057 51.882,213.817 51.849,215.585C44.177,215.677 36.489,215.586 28.809,215.285C28.057,215.261 27.305,215.236 26.529,215.211C19.665,214.912 19.665,214.912 16.609,213.187C14.777,209.515 16.019,204.307 16.609,200.387C17.697,197.707 19.369,196.027 21.409,193.987C21.696,191.595 21.696,191.595 21.711,188.707C21.724,188.146 21.737,187.587 21.75,187.003C21.793,185.075 21.825,183.147 21.856,181.219C21.885,179.811 21.914,178.395 21.943,176.987C22.026,172.907 22.096,168.827 22.163,164.747C22.211,161.867 22.261,158.979 22.311,156.107C22.554,142.027 22.771,128.027 22.979,113.947C23.041,109.795 23.105,105.627 23.17,101.467C23.394,87.067 23.599,72.667 23.774,58.347C23.807,55.731 23.843,53.107 23.88,50.491C23.929,46.915 23.966,43.331 23.991,39.771C24.001,38.555 24.015,37.339 24.034,36.123C24.136,29.187 23.852,23.323 20.554,17.163C19.354,14.603 19.298,11.899 19.106,9.083C19.048,8.507 18.991,7.931 18.931,7.339C18.812,5.659 18.812,5.659 19.006,2.731C21.686,-0.317 24.99,-0.005 28.766,0.043L28.8,0Z" style="fill:rgb(252,253,255);fill-rule:nonzero;"/>
        </g>
        <g transform="matrix(1,0,0,1,421.6,922.4)">
            <path d="M28.8,0C30.952,1.952 30.952,1.952 32.8,4C34.512,5.712 35.304,5.944 37.6,6.4C37.798,5.658 37.996,4.912 38.2,4.152C39.256,1.456 39.928,0.592 42.4,-0.8L44,-0.8C45.704,2.712 45.944,6.08 46.104,9.92C46.154,10.904 46.154,10.904 46.205,11.904C46.31,14.024 46.405,16.136 46.498,18.256C46.566,19.704 46.634,21.16 46.702,22.608C47.066,30.688 47.341,38.688 47.347,46.768C47.348,47.552 47.348,48.336 47.349,49.144C47.306,54.312 47.306,54.312 46.397,55.216C42.125,55.587 42.125,55.587 40.325,54.328C38.749,52.216 38.389,50.24 37.821,47.672C37.706,47.166 37.591,46.656 37.472,46.136C37.105,44.512 36.751,42.888 36.4,41.264C36.163,40.2 35.924,39.136 35.684,38.072C35.508,37.289 35.508,37.289 35.328,36.488C35.212,35.969 35.095,35.448 34.975,34.912C34.744,33.888 34.513,32.856 34.275,31.8C34.052,30.816 33.829,29.824 33.6,28.808C33.29,27.416 33.29,27.416 32.975,26C32.777,25.152 32.579,24.304 32.375,23.432C32.12,22.32 32.12,22.32 31.86,21.184C31.125,18.984 30.468,17.624 28.796,16.008C26.692,15.741 26.692,15.741 24.796,16.008C24.352,39.048 30.988,62.008 36.636,84.168C38.268,90.632 39.644,97.128 40.964,103.688C41.161,104.656 41.359,105.632 41.562,106.632C46.514,131.752 51.962,169.032 37.802,192.232C33.794,198.016 33.794,198.016 31.162,199.328C26.962,199.834 24.762,199.658 21.322,197.128C19.17,195.4 17.562,193.584 15.97,191.328C13.346,191.93 13.346,191.93 11.97,194.528C7.906,195.047 7.906,195.047 5.842,193.592C4.362,191.568 4.426,190.128 4.362,187.632C4.333,186.696 4.305,185.768 4.276,184.808C4.258,183.792 4.24,182.776 4.222,181.736C4.197,180.688 4.172,179.64 4.146,178.568C4.081,175.704 4.036,172.84 3.998,170.008C3.971,168.12 3.939,166.224 3.906,164.336C3.852,161.12 3.815,157.912 3.788,154.736C3.777,153.488 3.763,152.24 3.744,150.992C3.72,149.24 3.713,147.48 3.709,145.728C3.698,144.216 3.698,144.216 3.686,142.672C3.971,140.208 3.971,140.208 5.086,138.664C6.366,137.808 6.366,137.808 7.966,137.864C10.046,138.84 10.734,139.872 11.966,141.816C12.568,143.896 12.568,143.896 12.99,146.256C13.151,147.12 13.311,147.992 13.477,148.888C13.638,149.808 13.799,150.72 13.966,151.672C14.314,153.56 14.662,155.448 15.006,157.328C15.325,159.088 15.643,160.856 15.966,162.616C17.334,173.416 17.334,173.416 22.366,182.616C24.222,182.936 26.094,183.208 27.966,183.416C27.946,180.648 27.883,177.88 27.815,175.096C27.811,174.354 27.806,173.616 27.801,172.848C27.308,155.888 22.209,138.928 17.961,122.608C14.385,108.848 11.193,95.008 8.761,81.008C8.656,80.402 8.55,79.792 8.441,79.168C7.065,70.928 6.873,62.848 6.913,54.528C6.915,53.882 6.916,53.24 6.918,52.568C6.983,35.208 7.734,17.928 18.358,3.368C21.678,0.208 24.238,-1.336 28.758,0.168L28.8,0Z" style="fill:rgb(252,253,255);fill-rule:nonzero;"/>
        </g>
        <g transform="matrix(1,0,0,1,288.8,919.2)">
            <path d="M28.8,0C34.752,0.156 34.752,0.156 36.96,0.235C38.712,0.296 40.472,0.335 42.224,0.373C43.336,0.407 44.456,0.443 45.568,0.481C47.096,0.528 47.096,0.528 48.648,0.575C51.4,0.98 51.928,1.226 53.568,3.343C53.963,4.919 53.963,4.919 54.093,6.671C54.144,7.312 54.196,7.951 54.249,8.615C54.288,9.252 54.327,9.887 54.368,10.543C54.408,11.086 54.447,11.631 54.488,12.191C54.603,13.895 54.692,15.591 54.774,17.295C54.806,17.967 54.839,18.639 54.873,19.335C55.31,28.935 55.498,38.535 55.729,48.055C56.264,70.135 56.937,92.215 57.889,114.295C57.964,116.055 58.037,117.823 58.11,119.583C58.245,122.871 58.391,126.151 58.54,129.423C58.599,130.855 58.599,130.855 58.658,132.319C59.017,139.855 60.226,146.959 62.066,154.319C62.938,157.983 63.426,161.167 63.17,164.879C58.538,164.451 54.85,163.119 50.69,161.183C50.066,160.901 49.442,160.618 48.802,160.327C43.33,157.815 38.002,155.047 32.802,152.087C33.053,148.143 33.311,145.191 35.25,141.767C37.066,138.015 37.186,134.415 37.25,130.327C37.282,129.391 37.282,129.391 37.315,128.431C37.294,125.071 37.099,123.711 34.971,120.975C31.187,118.095 27.227,116.471 22.411,116.919C21.075,124.599 21.395,130.439 24.099,137.799C25.107,141.111 25.043,143.895 24.811,147.319C18.307,145.551 12.651,142.519 7.211,138.519C6.115,135.239 7.142,134.079 8.507,130.919C15.091,114.279 16.259,95.159 18.827,77.559C19.987,69.583 21.219,61.639 22.651,53.719C23.547,48.743 24.347,43.719 25.115,38.759C25.29,37.639 25.467,36.527 25.648,35.407C28.384,23.247 28.384,23.247 26.027,11.967C25.63,11.489 25.234,11.007 24.827,10.519C24.536,8.335 24.536,8.335 24.577,6.023C24.58,5.254 24.583,4.487 24.586,3.695C24.96,0.639 25.826,0.159 28.85,-0.017L28.8,0Z" style="fill:rgb(252,253,255);fill-rule:nonzero;"/>
        </g>
        <g transform="matrix(1,0,0,1,930.4,919.2)">
            <path d="M28.8,0C30.376,3.152 29.968,6.968 29.6,10.4C28.792,11.76 27.984,13.128 27.112,14.44C26.168,16.52 26.224,18.12 26.264,20.4C26.286,21.8 26.286,21.8 26.309,23.224C26.492,29.496 26.724,35.784 27.001,42.024C27.034,42.786 27.067,43.552 27.101,44.336C28.205,69.536 29.805,94.736 31.341,119.856C32.197,133.936 32.197,133.936 32.301,139.376C32.346,140.328 32.346,140.328 32.392,141.304C32.44,144.48 32.346,145.952 30.152,148.32C27.792,149.64 25.888,150.072 23.208,150.32L23.208,148.72L21.608,148.72C21.167,147.496 20.728,146.272 20.288,145.048C20,144.25 19.712,143.448 19.416,142.632C18.766,140.832 18.12,139.024 17.472,137.216C15.88,132.792 14.288,128.336 12.664,123.936C7.656,110.256 3.064,96.336 -1.496,82.496C-2.047,80.832 -2.6,79.16 -3.152,77.496L-4.752,77.496C-4.712,77.954 -4.672,78.408 -4.631,78.88C-3.783,88.8 -3.143,98.72 -2.743,108.64C-2.71,109.472 -2.676,110.304 -2.642,111.16C-2.477,115.352 -2.322,119.56 -2.177,123.72C-2.118,125.296 -2.058,126.88 -1.999,128.456C-1.966,129.528 -1.966,129.528 -1.933,130.616C-1.62,140.056 -1.62,140.056 2.555,148.296C5.363,152.104 5.371,155.304 4.859,159.896C3.075,160.8 1.291,161.696 -0.493,162.6C-0.994,162.854 -1.493,163.107 -2.013,163.369C-10.173,167.449 -10.173,167.449 -14.333,167.097C-15.637,165.793 -15.333,164.345 -15.381,162.545C-15.356,158.137 -14.261,155.825 -11.133,152.705C-10.576,144.225 -11.463,135.505 -11.923,127.105C-12.007,125.537 -12.09,123.969 -12.173,122.401C-12.394,118.241 -12.619,114.081 -12.844,109.921C-12.983,107.353 -13.122,104.777 -13.26,102.209C-14.74,74.609 -14.74,74.609 -16.34,47.009C-16.432,45.481 -16.523,43.953 -16.612,42.425C-16.88,28.585 -16.88,28.585 -21.532,15.945C-22.319,13.945 -22.319,13.945 -22.932,11.945C-23.143,11.285 -23.353,10.625 -23.57,9.945C-23.976,7.705 -23.711,6.129 -23.132,3.945C-19.092,2.649 -15.452,2.073 -11.212,1.849C-10.665,1.818 -10.116,1.787 -9.556,1.755C-8.228,1.681 -6.892,1.614 -5.564,1.549C-2.692,5.397 -1.316,9.069 0.036,13.629C0.515,15.189 0.996,16.757 1.476,18.317C1.747,19.197 2.017,20.069 2.3,20.973C4.364,27.493 6.572,34.013 8.748,40.493C10.924,46.965 13.076,53.453 15.124,59.933C15.297,60.475 15.469,61.021 15.647,61.581C16.831,65.365 16.831,65.365 16.831,67.157L18.431,67.157C18.241,61.397 18.042,55.637 17.835,49.877C17.766,47.917 17.699,45.965 17.635,44.005C17.541,41.181 17.44,38.349 17.337,35.525C17.31,34.661 17.283,33.797 17.256,32.909C16.971,25.493 16.456,18.269 12.784,11.709C9.808,6.301 9.808,6.301 9.632,3.229C10.416,1.813 10.416,1.813 12.032,0.829C14.72,0.419 14.72,0.419 17.88,0.278C19.432,0.2 19.432,0.2 21.024,0.119C23.632,0.041 26.224,0.008 28.832,0.029L28.8,0Z" style="fill:rgb(251,252,254);fill-rule:nonzero;"/>
        </g>
        <g transform="matrix(1,0,0,1,972.8,916.8)">
            <path d="M28.8,0C30.168,3.08 30.808,5.936 31.304,9.28C31.381,9.795 31.458,10.312 31.538,10.84C31.792,12.544 32.04,14.256 32.287,15.968C32.466,17.176 32.646,18.392 32.826,19.6C33.208,22.168 33.587,24.744 33.962,27.312C34.55,31.32 35.146,35.312 35.746,39.312C35.846,39.973 35.945,40.632 36.046,41.312C36.246,42.64 36.445,43.976 36.645,45.304C37.136,48.584 37.629,51.864 38.117,55.144C38.21,55.77 38.304,56.392 38.4,57.04C38.821,59.856 39.24,62.672 39.656,65.52C40.395,70.496 41.144,75.44 41.92,80.4C42.132,81.776 42.339,83.144 42.541,84.52C43.685,92.28 45.381,99.08 48.637,106.2C49.661,108.968 50.101,110.68 49.597,113.592C47.869,115.312 47.869,115.312 45.597,116.792C44.894,117.271 44.189,117.752 43.469,118.248C42.349,118.97 42.349,118.97 41.213,119.704C40.397,120.231 39.589,120.76 38.749,121.304C37.485,122.12 37.485,122.12 36.205,122.944C34.525,124.032 32.845,125.12 31.165,126.2C30.423,126.678 29.685,127.16 28.917,127.648C27.285,128.648 27.285,128.648 26.397,129.592C24.397,129.692 24.397,129.692 22.397,129.592C22.133,129.328 21.869,129.064 21.597,128.792C21.895,125.448 22.397,122.328 23.245,119.112C24.421,114.144 24.125,109.112 23.995,103.992C20.835,102.936 19.795,103.762 16.795,105.096C12.051,107.176 12.051,107.176 9.595,107.992C7.899,116.072 8.443,121.752 12.795,128.792C13.059,129.056 13.323,129.32 13.595,129.592C13.991,133.024 14.042,134.616 11.899,137.392C9.603,139.192 7.443,140.384 4.795,141.592C4.118,142.038 3.443,142.48 2.747,142.944C0.563,144.12 -0.765,144.2 -3.205,143.992C-4.229,140.92 -3.628,139.232 -2.905,136.088C-2.684,135.12 -2.463,134.144 -2.236,133.144C-2.028,132.232 -1.819,131.328 -1.605,130.384C-1.039,127.792 -0.677,125.304 -0.533,122.648C-0.492,121.921 -0.452,121.192 -0.41,120.44C-0.37,119.652 -0.329,118.864 -0.287,118.048C-0.242,117.208 -0.196,116.368 -0.149,115.504C0.002,112.728 0.148,109.96 0.294,107.184C0.398,105.248 0.503,103.312 0.608,101.376C0.884,96.272 1.156,91.136 1.424,86.016C1.752,79.848 2.084,73.696 2.416,67.536C2.674,62.728 2.933,57.936 3.189,53.136C3.634,44.816 4.085,36.496 4.629,28.176C5.354,19.296 5.354,19.296 2.357,11.136C1.061,8.584 0.997,6.056 0.789,3.224C3.645,0.464 6.509,0.392 10.309,0.272C11.205,0.232 11.205,0.232 12.117,0.191C17.677,-0.037 23.237,-0.057 28.837,0.022L28.8,0Z" style="fill:rgb(252,253,255);fill-rule:nonzero;"/>
        </g>
        <g transform="matrix(1,0,0,1,252.8,915.2)">
            <path d="M28.8,0C29.402,0.137 30.008,0.274 30.624,0.416C32.4,0.95 32.4,0.95 34.104,1.824C36.88,3.176 39.448,1.801 42.264,0.904C42.974,0.657 43.68,0.409 44.416,0.154C45.4,2.122 45.312,3.402 45.304,5.61C45.304,6.41 45.304,7.21 45.304,8.034C45.3,8.898 45.296,9.77 45.291,10.658C45.29,11.546 45.289,12.426 45.288,13.338C45.283,16.178 45.273,19.01 45.263,21.818C45.259,23.738 45.256,25.658 45.252,27.578C45.243,32.29 45.23,37.018 45.213,41.738C40.069,41.349 40.069,41.349 38.109,39.57C37.053,37.402 36.765,35.658 36.541,33.25C36.452,32.386 36.362,31.514 36.269,30.626C36.144,29.274 36.144,29.274 36.016,27.89C35.276,19.73 35.276,19.73 32.416,12.13C30.84,12.155 30.84,12.155 29.216,12.93C27.28,17.242 27.12,21.81 26.768,26.45C26.702,27.298 26.636,28.146 26.568,29.018C25.892,37.978 25.488,46.938 25.128,55.898C25.056,57.634 24.985,59.362 24.913,61.098C24.766,64.682 24.622,68.274 24.48,71.898C24.298,76.482 24.108,81.098 23.915,85.658C23.766,89.218 23.623,92.778 23.48,96.298C23.412,97.986 23.342,99.682 23.271,101.37C23.172,103.722 23.08,106.082 22.989,108.434C22.944,109.466 22.944,109.466 22.897,110.514C22.748,114.618 22.877,118.474 23.612,122.514C25.668,124.57 27.196,124.546 30.012,124.914C30.072,124.393 30.132,123.874 30.194,123.338C30.472,120.978 30.767,118.626 31.058,116.266C31.2,115.034 31.2,115.034 31.344,113.786C31.444,112.999 31.544,112.21 31.648,111.402C31.736,110.677 31.824,109.954 31.915,109.202C32.465,107.09 33.147,106.274 34.811,104.914C39.411,107.01 39.411,107.01 41.211,109.714C41.39,111.938 41.477,114.042 41.46,116.266C41.454,117.186 41.454,117.186 41.448,118.13C41.306,124.986 39.584,129.49 34.808,134.53C32.304,135.778 30.384,135.554 27.608,135.33C18.488,132.09 14.088,125.33 10.008,116.93C-2.712,89.09 -4.392,50.45 6.008,21.73C9.296,13.57 13.552,4.05 22.008,0.13C24.536,-0.71 26.224,-0.634 28.808,-0.021L28.8,0Z" style="fill:rgb(252,253,255);fill-rule:nonzero;"/>
        </g>
        <g transform="matrix(1,0,0,1,507.2,941.6)">
            <path d="M28.8,0C31.272,0.127 32.432,0.434 34.2,2.2C36.168,5.744 36.104,9.384 36.104,13.4C36.105,13.924 36.107,14.448 36.108,14.984C36.112,16.72 36.109,18.448 36.107,20.184C36.107,21.416 36.108,22.64 36.109,23.872C36.11,26.456 36.109,29.048 36.105,31.632C36.1,34.872 36.103,38.112 36.108,41.312C36.156,80.832 36.156,80.832 34.5,98.032C34.447,98.584 34.395,99.136 34.341,99.704C33.914,103.288 33.037,106.992 30.397,109.624C25.973,109.812 25.973,109.812 23.997,108.824C23.91,98.184 24.184,87.624 24.494,76.984C24.546,75.16 24.598,73.344 24.65,71.52C24.759,67.728 24.868,63.936 24.979,60.16C25.12,55.328 25.257,50.48 25.393,45.68C25.5,41.928 25.608,38.176 25.716,34.4C25.768,32.616 25.819,30.84 25.868,29.056C26.624,2.256 26.624,2.256 28.796,0.016L28.8,0Z" style="fill:rgb(7,5,13);fill-rule:nonzero;"/>
        </g>
        <g transform="matrix(1,0,0,1,612,944)">
            <path d="M28.8,0C30.704,0 30.704,0 32.8,0.8C37.104,5.824 36.92,11.44 36.92,17.76C36.924,18.704 36.924,18.704 36.928,19.672C36.936,21.744 36.937,23.816 36.938,25.888C36.941,27.344 36.943,28.792 36.946,30.248C36.951,33.296 36.953,36.336 36.952,39.368C36.952,43.24 36.963,47.112 36.977,50.968C36.986,53.976 36.987,56.976 36.987,60.008C36.988,61.432 36.991,62.864 36.997,64.288C37.064,81.088 37.064,81.088 35.205,88.768C33.605,90.368 33.605,90.368 30.757,90.52C28.005,90.37 28.005,90.37 27.205,89.568C27.125,88.432 27.101,87.288 27.098,86.144C27.095,85.405 27.091,84.664 27.088,83.904C27.088,83.088 27.089,82.272 27.089,81.424C27.086,80.568 27.084,79.712 27.081,78.832C27.073,75.984 27.072,73.144 27.071,70.272C27.068,68.304 27.066,66.336 27.063,64.368C27.058,60.24 27.056,56.128 27.057,51.968C27.057,46.664 27.046,41.328 27.032,36.048C27.023,31.984 27.022,27.888 27.022,23.888C27.021,21.928 27.018,19.976 27.012,18.016C27.004,15.288 27.006,12.552 27.011,9.856C27.006,9.04 27.002,8.224 26.997,7.384C27.001,6.642 27.004,5.904 27.007,5.136C27.007,4.49 27.007,3.84 27.006,3.176C27.205,1.608 27.205,1.608 28.806,0.008L28.8,0Z" style="fill:rgb(7,5,13);fill-rule:nonzero;"/>
        </g>
        <g transform="matrix(1,0,0,1,844.8,935.2)">
            <path d="M28.8,0C31.384,1.656 31.952,3.24 33.152,6.048C34.04,10.256 34.352,14.528 34.752,18.848C34.825,19.587 34.898,20.328 34.974,21.088C36.03,32.048 36.526,42.928 36.59,53.888C36.598,55.168 36.61,56.44 36.625,57.72C36.644,59.52 36.646,61.328 36.643,63.128C36.645,64.168 36.648,65.208 36.65,66.28C36.318,69.552 35.586,73.184 33.154,75.64C30.754,75.74 30.754,75.74 28.354,75.64C26.546,73.832 27.002,69.6 26.802,67.08C26.734,66.224 26.666,65.376 26.596,64.496C25.78,53.536 25.364,42.496 24.908,31.536C24.877,30.778 24.845,30.016 24.813,29.24C24.753,27.736 24.694,26.232 24.638,24.72C24.493,20.952 24.299,17.2 24.013,13.44C23.935,12.336 23.935,12.336 23.857,11.208C23.757,9.816 23.643,8.416 23.515,7.024C23.386,5.144 23.386,5.144 23.55,2.048C25.406,-0.056 26.022,-0.48 28.798,0L28.8,0Z" style="fill:rgb(7,5,13);fill-rule:nonzero;"/>
        </g>
        <g transform="matrix(1,0,0,1,364,934.4)">
            <path d="M28.8,0C31.304,1.016 32.176,2.224 33.44,4.576C34.864,8.632 34.488,12.976 34.4,17.216C34.388,18.296 34.376,19.384 34.365,20.464C34.173,34.704 33.365,49.024 32.501,63.264C32.449,64.128 32.449,64.128 32.396,65.016C32.18,68.584 31.948,72.152 31.701,75.736C31.645,76.592 31.588,77.456 31.53,78.344C30.799,88.184 30.799,88.184 28.298,92.024C26.21,93.296 24.49,93.08 22.098,92.872C21.57,92.608 21.042,92.344 20.498,92.072C20.916,73.512 21.81,54.952 22.978,36.392C23.208,32.744 23.426,29.088 23.642,25.432C23.812,22.584 23.988,19.744 24.167,16.872C24.251,15.52 24.332,14.176 24.411,12.824C24.52,10.968 24.639,9.104 24.76,7.248C24.826,6.192 24.891,5.144 24.958,4.056C25.36,1.152 25.732,0.04 28.798,-0.04L28.8,0Z" style="fill:rgb(7,5,13);fill-rule:nonzero;"/>
        </g>
        <g transform="matrix(1,0,0,1,672,990.4)">
            <path d="M28.8,0C29.328,0.264 29.856,0.528 30.4,0.8C30.764,2.856 30.764,2.856 30.997,5.648C31.064,6.415 31.064,6.415 31.131,7.2C31.278,8.92 31.414,10.632 31.55,12.352C31.65,13.56 31.752,14.768 31.854,15.984C32.79,27.264 33.574,38.464 34.326,49.744C34.768,56.272 35.294,62.784 36.062,69.264C36.645,74.216 37.014,79.104 36.894,84.064C36.887,84.686 36.88,85.304 36.873,85.952C36.854,87.424 36.826,88.896 36.794,90.368C34.674,90.389 32.562,90.405 30.442,90.418C29.838,90.425 29.234,90.431 28.61,90.438C27.066,90.445 25.53,90.41 23.986,90.368C23.722,90.104 23.458,89.84 23.186,89.568C23.231,87.072 23.33,84.6 23.465,82.112C23.504,81.33 23.543,80.544 23.583,79.744C23.669,78.04 23.757,76.344 23.846,74.64C23.986,71.976 24.122,69.312 24.255,66.648C24.542,60.976 24.838,55.288 25.135,49.608C25.188,48.608 25.24,47.616 25.294,46.592C25.918,34.832 26.55,22.992 27.286,11.232C27.347,10.24 27.407,9.248 27.469,8.224C27.526,7.344 27.583,6.464 27.642,5.56C27.69,4.82 27.738,4.08 27.786,3.32C27.986,1.584 27.986,1.584 28.786,-0.016L28.8,0Z" style="fill:rgb(7,5,13);fill-rule:nonzero;"/>
        </g>
        <g transform="matrix(1,0,0,1,293.6,964)">
            <path d="M28.8,0C30.344,2.616 30.632,4.648 30.728,7.664C30.76,8.56 30.792,9.464 30.825,10.384C30.852,11.352 30.878,12.328 30.906,13.328C30.939,14.336 30.972,15.344 31.006,16.384C31.076,18.528 31.142,20.672 31.204,22.808C31.297,26.04 31.402,29.272 31.509,32.488C31.853,43.288 32.115,54.008 31.999,64.808C25.855,64 25.855,64 22.879,62.408C22.345,62.127 21.807,61.847 21.263,61.56C19.983,60.81 19.983,60.81 19.183,60.008C19.35,54.08 20.399,48.168 21.383,42.328C22.391,36.216 23.351,30.088 24.223,24.008C24.311,23.395 24.399,22.784 24.49,22.152C24.841,19.704 25.191,17.256 25.53,14.8C25.768,13.08 26.013,11.368 26.258,9.656C26.398,8.664 26.536,7.672 26.679,6.656C27.134,4.256 27.775,2.248 28.775,0.024L28.8,0Z" style="fill:rgb(7,5,13);fill-rule:nonzero;"/>
        </g>
        <g transform="matrix(1,0,0,1,956.8,955.2)">
            <path d="M28.8,0C29.328,0.264 29.856,0.528 30.4,0.8C30.898,3.072 30.898,3.072 31.32,6.128C31.398,6.677 31.476,7.224 31.556,7.792C31.811,9.592 32.056,11.4 32.301,13.208C32.649,15.704 33.002,18.192 33.357,20.68C33.444,21.303 33.532,21.928 33.622,22.568C34.518,28.92 35.558,35.288 36.67,41.528C37.486,46.384 37.766,51.048 37.606,55.928C30.87,59.672 30.87,59.672 26.406,59.128C25.606,58.328 25.606,58.328 25.51,56.344C25.545,50.024 25.75,43.704 26.102,37.464C26.154,36.512 26.205,35.56 26.258,34.576C26.366,32.584 26.476,30.592 26.587,28.6C26.757,25.552 26.92,22.496 27.082,19.48C27.189,17.536 27.295,15.592 27.402,13.648C27.451,12.736 27.499,11.832 27.549,10.896C27.597,10.048 27.645,9.2 27.694,8.328C27.756,7.216 27.756,7.216 27.818,6.08C28.005,4.008 28.358,2.032 28.802,-0L28.8,0Z" style="fill:rgb(7,5,13);fill-rule:nonzero;"/>
        </g>
    </g>
    <g transform="matrix(1,0,0,1,-547.055,-1355.65)">
        <path d="M1061.56,1861.3C1060.72,1857.98 1050.37,1852.99 1038.2,1847.67L1035.28,1824.32L1027.01,1808.26C1024.52,1797.39 1024.06,1786.52 1025.55,1775.65L1019.71,1766.41C1020.69,1757.26 1021.25,1748.11 1020.23,1738.97C1023.27,1734.82 1024.75,1735.76 1028.46,1738.25L1028.47,1759.11L1034.8,1772.73C1033.06,1782.76 1032.55,1792.57 1034.8,1801.93L1044.53,1817.99L1042.53,1839.46C1049.81,1852.88 1068.51,1855.88 1079.1,1850.69C1093.37,1795.23 1107.64,1769.98 1121.9,1739.64C1126.81,1732.39 1128.33,1724.38 1127.26,1715.8C1139.11,1689.7 1151.29,1663.92 1167.16,1641.83C1171.54,1641.2 1174.92,1641.95 1173.97,1648.64C1159.57,1667.47 1150.48,1688.08 1142.08,1708.91C1137.4,1712.66 1137,1720.28 1137.63,1725.36C1125.56,1754.25 1114.45,1777.96 1105.05,1800.19L1104.39,1816.04C1099.67,1821.57 1096.05,1828.42 1094.65,1837.94C1105.27,1839.64 1117.08,1838.15 1129.69,1834.54C1163.84,1776.59 1200.8,1718.92 1247.94,1662.27C1238.49,1648.32 1221.71,1637.77 1195.39,1631.61C1166.03,1625.56 1139.58,1627.27 1114.12,1631.61C1032.22,1655.7 975.735,1706.34 987.037,1807.79C986.967,1821.82 990.36,1834.47 993.624,1845.83L1008.52,1859.84L1014.85,1874.93C1017.3,1884.18 1021.2,1893.33 1033.66,1901.92C1053.34,1906.28 1055.32,1892.02 1061.56,1861.3Z" style="fill:rgb(130,72,156);"/>
    </g>
    <g transform="matrix(1,0,0,1,7.35214,-3.17413)">
        <g transform="matrix(0.281963,-0.959425,0.959425,0.281963,-344.461,515.493)">
            <text x="172.165px" y="487.877px" style="font-family:'BernardMT-Condensed', 'Bernard MT Condensed', serif;font-stretch:condensed;font-size:77px;fill:white;">E</text>
        </g>
        <g transform="matrix(0.345619,-0.938375,0.938375,0.345619,-310.354,469.071)">
            <text x="181.144px" y="457.058px" style="font-family:'BernardMT-Condensed', 'Bernard MT Condensed', serif;font-stretch:condensed;font-size:77px;fill:white;">T</text>
        </g>
        <g transform="matrix(0.449755,-0.893152,0.893152,0.449755,-251.834,402.931)">
            <text x="201.1px" y="405.852px" style="font-family:'BernardMT-Condensed', 'Bernard MT Condensed', serif;font-stretch:condensed;font-size:77px;fill:white;">A</text>
        </g>
        <g transform="matrix(0.522524,-0.852624,0.852624,0.522524,-213.973,363.584)">
            <text x="217.638px" y="372.836px" style="font-family:'BernardMT-Condensed', 'Bernard MT Condensed', serif;font-stretch:condensed;font-size:77px;fill:white;">B</text>
        </g>
        <g transform="matrix(0.598579,-0.801064,0.801064,0.598579,-174.091,327.202)">
            <text x="239.432px" y="337.306px" style="font-family:'BernardMT-Condensed', 'Bernard MT Condensed', serif;font-stretch:condensed;font-size:77px;fill:white;">O</text>
        </g>
        <g transform="matrix(0.673032,-0.739614,0.739614,0.673032,-138.171,294.874)">
            <text x="264.422px" y="303.71px" style="font-family:'BernardMT-Condensed', 'Bernard MT Condensed', serif;font-stretch:condensed;font-size:77px;fill:white;">M</text>
        </g>
        <g transform="matrix(0.725633,-0.688082,0.688082,0.725633,-105.408,277.216)">
            <text x="294.909px" y="270.784px" style="font-family:'BernardMT-Condensed', 'Bernard MT Condensed', serif;font-stretch:condensed;font-size:77px;fill:white;">I</text>
        </g>
        <g transform="matrix(0.767641,-0.64088,0.64088,0.767641,-91.2362,258.653)">
            <text x="311.083px" y="255.148px" style="font-family:'BernardMT-Condensed', 'Bernard MT Condensed', serif;font-stretch:condensed;font-size:77px;fill:white;">N</text>
        </g>
        <g transform="matrix(0.814762,-0.579795,0.579795,0.814762,-72.1504,239.14)">
            <text x="338.18px" y="232.486px" style="font-family:'BernardMT-Condensed', 'Bernard MT Condensed', serif;font-stretch:condensed;font-size:77px;fill:white;">A</text>
        </g>
        <g transform="matrix(0.85996,-0.510361,0.510361,0.85996,-56.1381,217.474)">
            <text x="368.212px" y="211.032px" style="font-family:'BernardMT-Condensed', 'Bernard MT Condensed', serif;font-stretch:condensed;font-size:77px;fill:white;">B</text>
        </g>
        <g transform="matrix(0.892956,-0.450144,0.450144,0.892956,-42.2624,202.326)">
            <text x="404.282px" y="190.024px" style="font-family:'BernardMT-Condensed', 'Bernard MT Condensed', serif;font-stretch:condensed;font-size:77px;fill:white;">I</text>
        </g>
        <g transform="matrix(0.918279,-0.395935,0.395935,0.918279,-36.4754,182.68)">
            <text x="424.298px" y="179.7px" style="font-family:'BernardMT-Condensed', 'Bernard MT Condensed', serif;font-stretch:condensed;font-size:77px;fill:white;">T</text>
        </g>
        <g transform="matrix(0.943937,-0.330125,0.330125,0.943937,-28.9673,160.303)">
            <text x="457.486px" y="165.438px" style="font-family:'BernardMT-Condensed', 'Bernard MT Condensed', serif;font-stretch:condensed;font-size:77px;fill:white;">U</text>
        </g>
        <g transform="matrix(0.965998,-0.258548,0.258548,0.965998,-23.2291,131.728)">
            <text x="489.214px" y="154.181px" style="font-family:'BernardMT-Condensed', 'Bernard MT Condensed', serif;font-stretch:condensed;font-size:77px;fill:white;">R</text>
        </g>
        <g transform="matrix(0.989136,-0.147005,0.147005,0.989136,-14.5811,82.0796)">
            <text x="548.022px" y="139.688px" style="font-family:'BernardMT-Condensed', 'Bernard MT Condensed', serif;font-stretch:condensed;font-size:77px;fill:white;">V</text>
        </g>
        <g transform="matrix(0.997406,-0.0719755,0.0719755,0.997406,-8.14027,42.4215)">
            <text x="584.554px" y="134.162px" style="font-family:'BernardMT-Condensed', 'Bernard MT Condensed', serif;font-stretch:condensed;font-size:77px;fill:white;">O</text>
        </g>
        <g transform="matrix(0.999993,-0.0037046,0.0037046,0.999993,-0.482384,2.32055)">
            <text x="626.153px" y="131.372px" style="font-family:'BernardMT-Condensed', 'Bernard MT Condensed', serif;font-stretch:condensed;font-size:77px;fill:white;">S</text>
        </g>
        <g transform="matrix(0.995479,0.0949804,-0.0949804,0.995479,15.5757,-63.3989)">
            <text x="673.774px" y="131.918px" style="font-family:'BernardMT-Condensed', 'Bernard MT Condensed', serif;font-stretch:condensed;font-size:77px;fill:white;">A</text>
        </g>
        <g transform="matrix(0.985465,0.169876,-0.169876,0.985465,33.3228,-118.739)">
            <text x="710.552px" y="135.364px" style="font-family:'BernardMT-Condensed', 'Bernard MT Condensed', serif;font-stretch:condensed;font-size:77px;fill:white;">D</text>
        </g>
        <g transform="matrix(0.970292,0.241939,-0.241939,0.970292,56.8404,-177.607)">
            <text x="751.616px" y="142.644px" style="font-family:'BernardMT-Condensed', 'Bernard MT Condensed', serif;font-stretch:condensed;font-size:77px;fill:white;">E</text>
        </g>
        <g transform="matrix(0.949921,0.312489,-0.312489,0.949921,86.1578,-237.11)">
            <text x="782.857px" y="150.256px" style="font-family:'BernardMT-Condensed', 'Bernard MT Condensed', serif;font-stretch:condensed;font-size:77px;fill:white;">P</text>
        </g>
        <g transform="matrix(0.922344,0.386369,-0.386369,0.922344,126.981,-305.052)">
            <text x="822.369px" y="163.366px" style="font-family:'BernardMT-Condensed', 'Bernard MT Condensed', serif;font-stretch:condensed;font-size:77px;fill:white;">T</text>
        </g>
        <g transform="matrix(0.888526,0.458827,-0.458827,0.888526,176.707,-372.882)">
            <text x="855.742px" y="177.22px" style="font-family:'BernardMT-Condensed', 'Bernard MT Condensed', serif;font-stretch:condensed;font-size:77px;fill:white;">O</text>
        </g>
        <g transform="matrix(0.826771,0.562539,-0.562539,0.826771,273.453,-475.623)">
            <text x="908.988px" y="206.19px" style="font-family:'BernardMT-Condensed', 'Bernard MT Condensed', serif;font-stretch:condensed;font-size:77px;fill:white;">N</text>
        </g>
        <g transform="matrix(0.790924,0.611914,-0.611914,0.790924,334.512,-526.707)">
            <text x="938.029px" y="226.164px" style="font-family:'BernardMT-Condensed', 'Bernard MT Condensed', serif;font-stretch:condensed;font-size:77px;fill:white;">I</text>
        </g>
        <g transform="matrix(0.746815,0.665031,-0.665031,0.746815,401.46,-575.143)">
            <text x="956.084px" y="239.679px" style="font-family:'BernardMT-Condensed', 'Bernard MT Condensed', serif;font-stretch:condensed;font-size:77px;fill:white;">H</text>
        </g>
        <g transform="matrix(0.69916,0.714965,-0.714965,0.69916,488.836,-625.411)">
            <text x="987.582px" y="268.169px" style="font-family:'BernardMT-Condensed', 'Bernard MT Condensed', serif;font-stretch:condensed;font-size:77px;fill:white;">I</text>
        </g>
        <g transform="matrix(0.657514,0.753442,-0.753442,0.657514,557.735,-658.685)">
            <text x="1003.4px" y="284.145px" style="font-family:'BernardMT-Condensed', 'Bernard MT Condensed', serif;font-stretch:condensed;font-size:77px;fill:white;">L</text>
        </g>
        <g transform="matrix(0.567972,0.823048,-0.823048,0.567972,712.868,-713.169)">
            <text x="1035.76px" y="322.451px" style="font-family:'BernardMT-Condensed', 'Bernard MT Condensed', serif;font-stretch:condensed;font-size:77px;fill:white;">B</text>
        </g>
        <g transform="matrix(0.511999,0.858986,-0.858986,0.511999,823.601,-735.618)">
            <text x="1059.22px" y="357.048px" style="font-family:'BernardMT-Condensed', 'Bernard MT Condensed', serif;font-stretch:condensed;font-size:77px;fill:white;">I</text>
        </g>
        <g transform="matrix(0.458285,0.888805,-0.888805,0.458285,914.488,-748.091)">
            <text x="1070.95px" y="376.165px" style="font-family:'BernardMT-Condensed', 'Bernard MT Condensed', serif;font-stretch:condensed;font-size:77px;fill:white;">B</text>
        </g>
        <g transform="matrix(0.394211,0.91902,-0.91902,0.394211,1040.16,-751.23)">
            <text x="1089.91px" y="413.38px" style="font-family:'BernardMT-Condensed', 'Bernard MT Condensed', serif;font-stretch:condensed;font-size:77px;fill:white;">E</text>
        </g>
    </g>
</svg>
